<?xml version="1.0" standalone="no"?>
<!DOCTYPE svg PUBLIC "-//W3C//DTD SVG 20010904//EN"
 "http://www.w3.org/TR/2001/REC-SVG-20010904/DTD/svg10.dtd">
<svg version="1.0" xmlns="http://www.w3.org/2000/svg"
 width="64.000000pt" height="64.000000pt" viewBox="0 0 64.000000 64.000000"
 preserveAspectRatio="xMidYMid meet">

<g transform="translate(0.000000,64.000000) scale(0.100000,-0.100000)"
fill="#000000" stroke="none">
<path d="M287 405 l-214 -215 -27 -81 c-15 -45 -25 -83 -23 -85 2 -2 39 8 83
22 77 25 82 29 194 143 63 64 161 159 218 212 70 65 102 102 102 117 0 31 -67
102 -95 102 -17 0 -83 -60 -238 -215z m272 149 c12 -15 21 -31 21 -36 0 -12
-406 -410 -430 -422 -25 -12 -66 29 -54 54 14 30 413 430 428 430 8 0 24 -12
35 -26z"/>
</g>
</svg>
